/* XPM */
static char *_b158873f10d4673b63250e3c49a1a8a[] = {
/* columns rows colors chars-per-pixel */
"32 32 34 1 ",
"  c #A1D6E7",
". c #3BA872",
"X c #3FB67B",
"o c #3DAE76",
"O c #38A26D",
"+ c #3DB377",
"@ c #349063",
"# c #2CC66D",
"$ c #25A65B",
"% c #27AE60",
"& c #459A77",
"* c #45BD83",
"= c #39C679",
"- c #30A967",
"; c #8CC8CD",
": c #81C1C0",
"> c #30B16A",
", c #42C181",
"< c #2D975E",
"1 c #5EAA95",
"2 c #3DC47D",
"3 c #2C8958",
"4 c #1E8449",
"5 c #1B7E44",
"6 c #248851",
"7 c #96CFD9",
"8 c #74B9B1",
"9 c #66B09F",
"0 c #43B980",
"q c #4FA084",
"w c #77BBB5",
"e c #4D9F81",
"r c #2CC46C",
"t c #3CBB79",
/* pixels */
"                                ",
"                                ",
"                                ",
"                                ",
"                                ",
"                                ",
"                                ",
"                                ",
"        15&9w;                  ",
"        4#2X.<51                ",
"        <#####2.68              ",
"        <#######,O@             ",
"       :O###r#####*5            ",
"      86o$$$oX**=#=3 9317       ",
"     :<$$$$$$>%%>*$3&O2+@;      ",
"    76$$$$$$$+%%%%>O.###X@7     ",
"    qo$-.$$$$$%%%%%%*####X@     ",
"    @-$<4.$$$$%%%%%%>#####o9    ",
"    4$$O4-$$$$%%X*+%%2####=3    ",
"    3-$$-$$+X0,=##0%%=####,&    ",
"    &o$$$$$,######*%X#####<:    ",
"    1O$$$$$X###2*>%>=####Oq     ",
"     @-$$$$$#t0%%%+4@=##.&      ",
"     75o$$$$-%%>+O&:16*O&       ",
"      ;@>X+++*2=+1   ;e8        ",
"       ;.#####,.@;              ",
"        5oo.O6&8                ",
"         w:::;                  ",
"                                ",
"                                ",
"                                ",
"                                "
};
