/* XPM */
static char *b88ce4436dcb4b9be9d86c5afc61ec77BmmXefa0w3OTaUQo[] = {
/* columns rows colors chars-per-pixel */
"32 32 139 2 ",
"   c #872A21",
".  c #882A21",
"X  c #8E2C23",
"o  c #8B2D25",
"O  c #89342D",
"+  c #90332A",
"@  c #963229",
"#  c #91352D",
"$  c #8A3B35",
"%  c #8F3B35",
"&  c #8A3F3A",
"*  c #913830",
"=  c #903E37",
"-  c #953F37",
";  c #953F38",
":  c #BF3D31",
">  c #8A403B",
",  c #8B433D",
"<  c #8B443F",
"1  c #93423B",
"2  c #93433E",
"3  c #BE4136",
"4  c #BD463C",
"5  c #C04439",
"6  c #C0473C",
"7  c #E74C3C",
"8  c #F5503F",
"9  c #8C4B47",
"0  c #994741",
"q  c #984841",
"w  c #9C4943",
"e  c #9B4F4A",
"r  c #8D524F",
"t  c #9B504C",
"y  c #9C524E",
"u  c #8D5553",
"i  c #8E5A58",
"p  c #9C5753",
"a  c #BA4E46",
"s  c #B6564F",
"d  c #B8564E",
"f  c #A25551",
"g  c #A45752",
"h  c #A85651",
"j  c #A15855",
"k  c #A65A55",
"l  c #AD5953",
"z  c #AB5954",
"x  c #A75E5A",
"c  c #A95E5A",
"v  c #AF5E59",
"b  c #B75750",
"n  c #B75953",
"m  c #B35B55",
"M  c #B35C57",
"N  c #B15E58",
"B  c #B45F59",
"V  c #B7615A",
"C  c #B9605A",
"Z  c #8F6262",
"A  c #906262",
"S  c #906767",
"D  c #916B6B",
"F  c #916F71",
"G  c #927072",
"H  c #927578",
"J  c #AA6461",
"K  c #C14E44",
"L  c #C05047",
"P  c #C3564E",
"I  c #C8554B",
"U  c #DF5A4D",
"Y  c #C25A53",
"T  c #C25B54",
"R  c #C75D55",
"E  c #CA5F57",
"W  c #D15C52",
"Q  c #D25F55",
"!  c #DD5D52",
"~  c #DC5F54",
"^  c #E25648",
"/  c #C46159",
"(  c #C5635C",
")  c #C6655E",
"_  c #CA665F",
"`  c #DB6056",
"'  c #D5655C",
"]  c #D96359",
"[  c #DE6358",
"{  c #D4685F",
"}  c #DE685E",
"|  c #E96054",
" . c #E26459",
".. c #E5665B",
"X. c #C06660",
"o. c #C66963",
"O. c #CB6B64",
"+. c #CE6B64",
"@. c #CD6D67",
"#. c #D06861",
"$. c #D56860",
"%. c #D36D66",
"&. c #D96B62",
"*. c #DA6D64",
"=. c #DB7068",
"-. c #E06C62",
";. c #947E82",
":. c #948084",
">. c #95868B",
",. c #95878C",
"<. c #95888D",
"1. c #968B90",
"2. c #968D93",
"3. c #968E95",
"4. c #97939A",
"5. c #97949B",
"6. c #97959C",
"7. c #98979F",
"8. c #98989F",
"9. c #9898A0",
"0. c #999FA7",
"q. c #99A1AA",
"w. c #9AA7B1",
"e. c #9AA8B2",
"r. c #9BABB5",
"t. c #9BAEB9",
"y. c #9BB1BD",
"u. c #9CB6C2",
"i. c #9DB9C6",
"p. c #9DBECB",
"a. c #9EBFCC",
"s. c #9EC1CE",
"d. c #9EC4D3",
"f. c #9FC7D6",
"g. c #9FC8D7",
"h. c #9FCAD9",
"j. c #9FCCDB",
"k. c #A0D2E2",
"l. c #A1D6E7",
/* pixels */
"l.l.l.l.l.l.l.l.l.l.l.l.l.l.l.l.l.l.l.l.l.l.l.l.l.l.l.l.l.l.l.l.",
"l.l.l.l.l.l.l.l.l.l.l.l.l.l.l.l.l.l.l.l.l.l.l.l.l.l.l.l.l.l.l.l.",
"l.l.l.l.l.l.l.l.l.l.l.l.l.l.l.l.l.l.l.g.e.9.2.:.s.l.l.l.l.l.l.l.",
"l.l.l.l.l.l.l.l.l.l.l.l.l.l.l.l.0.F 9 o e p k c X l.l.l.l.l.l.l.",
"l.l.l.l.l.l.l.l.l.l.l.l.l.l.2.9 1 c n 3 : : : : @ y.l.l.l.l.l.l.",
"l.l.l.l.l.l.l.l.l.l.l.l.p.r w N 3 : : : : : : : - h.l.l.l.l.l.l.",
"l.l.l.l.l.l.l.l.l.l.l.6.. z : : : : : : : : : : 0 :.f.l.l.l.l.l.",
"l.l.l.l.l.l.l.l.l.l.s.# s : : : : : : 3 P ) ! %.E B * t.l.l.l.l.",
"l.l.l.l.l.r.G D 8.l.r.+ : : : : R #.U 7 7 7 =.8 8 8  .< l.l.l.l.",
"l.l.l.l.d.  h J 2 H l.9 n / #.^ 7 7 7 7 7 7 -.8 8 8 8 C <.l.l.l.",
"l.l.l.l.> v : : : g u q Q 7 7 7 7 7 7 7 7 7 | 8 8 8 8 &.r l.l.l.",
"l.l.l.;.k : : : : : I 7 7 7 7 7 7 7 7 7 7 7 8 8 8 8 8 8 = i.l.l.",
"l.l.9.e : : : : : / 7 7 7 7 7 7 7 7 7 7 7 7 8 8 8 *.*.8 l q.l.l.",
"l.l.r b : : : : : ] 7 7 7 7 7 7 7 7 7 7 7 7 8 8 8 : R 8 V 5.l.l.",
"l.i.= : : : : : L 7 7 O.5 T o.@.$.U 7 7 7 7 8 8 8 *.*.8 X.,.l.l.",
"l.k.% : : : : : L 7 7 ) : : : : : : K / ~ 7 8 8 8 8 8 8 X.,.l.l.",
"l.l.A M : : : : : ] 7 #.Y : : : : : : : ! 7 8 8 8 8 8 8 V 5.l.l.",
"l.l.r.= a : : : : _ 7 7 7 #./ : : : : P 7 7 8 8 8 8 8 8 l q.l.l.",
"l.l.l.<.y : : : : : W 7 7 7 7 ` +.( 6 O.7 7 8 8 8 8 8 8 ; i.l.l.",
"l.l.l.l.Z x : : d e & f ' 7 7 7 7 7 7 7 7 7 8 8 8 8 8 } u l.l.l.",
"l.l.l.l.l.$ q p O 9.l.6.y O.] 7 7 7 7 7 7 7 ..8 8 8 8 o.4.l.l.l.",
"l.l.l.l.l.l.7.5.u.l.l.1.x : : K _ { U 7 7 7 =.8 8 8  .S l.l.l.l.",
"l.l.l.l.l.l.l.l.l.l.l.9.c 4 : : : : : 3 P ) ! o.[ R - j.l.l.l.l.",
"l.l.l.l.l.l.l.l.l.l.l.l.r o f m : : : : : : : , A 4.l.l.l.l.l.l.",
"l.l.l.l.l.l.l.l.l.l.l.l.l.a.2.i o t p j x x j <.l.l.l.l.l.l.l.l.",
"l.l.l.l.l.l.l.l.l.l.l.l.l.l.l.l.f.w.0.6.3.>.3.l.l.l.l.l.l.l.l.l.",
"l.l.l.l.l.l.l.l.l.l.l.l.l.l.l.l.l.l.l.l.l.l.l.l.l.l.l.l.l.l.l.l.",
"l.l.l.l.l.l.l.l.l.l.l.l.l.l.l.l.l.l.l.l.l.l.l.l.l.l.l.l.l.l.l.l.",
"l.l.l.l.l.l.l.l.l.l.l.l.l.l.l.l.l.l.l.l.l.l.l.l.l.l.l.l.l.l.l.l.",
"l.l.l.l.l.l.l.l.l.l.l.l.l.l.l.l.l.l.l.l.l.l.l.l.l.l.l.l.l.l.l.l.",
"l.l.l.l.l.l.l.l.l.l.l.l.l.l.l.l.l.l.l.l.l.l.l.l.l.l.l.l.l.l.l.l.",
"l.l.l.l.l.l.l.l.l.l.l.l.l.l.l.l.l.l.l.l.l.l.l.l.l.l.l.l.l.l.l.l."
};
