/* XPM */
static char *e8a36636ee2649af901ca6112be8a366[] = {
/* columns rows colors chars-per-pixel */
"32 32 34 1 ",
"  c #EEE4B7",
". c #A5A489",
"X c #A3AA96",
"o c #A2AE9E",
"O c #DCDEBE",
"+ c #C9D1B9",
"@ c #D0D7BC",
"# c #A1D6E7",
"$ c #A39C7D",
"% c #A6A78D",
"& c #A3A084",
"* c #E5E2BB",
"= c #A1CBD2",
"- c #C8CFB5",
"; c #C3C9B0",
": c #ADAD93",
"> c #A2B9B2",
", c #C7CCB2",
"< c #C2B995",
"1 c #A2C5C9",
"2 c #A2BCB8",
"3 c #A2B4A8",
"4 c #BEC2A8",
"5 c #A2C0BE",
"6 c #B8BDA5",
"7 c #BDBDA1",
"8 c #A1D5E5",
"9 c #D7DCBE",
"0 c #B1B297",
"q c #A1D1DE",
"w c #B0B59E",
"e c #A1CED9",
"r c #B8B89B",
"t c #D9DABA",
/* pixels */
"################################",
"################################",
"################################",
"################################",
"################################",
"################################",
"################################",
"######1Xoo3>51e8################",
"######&O *O@+;4:X2q#############",
"######&         O-03q###########",
"####q5$,--+@9O*    97oe#########",
"###1&r---7$$$$$%4@*  @.#########",
"##=&9    @$$$+Or$$$:+t.882%$X=##",
"#8%@     O$$$+ 7$$$O;.51.6@ ;&e#",
"#1:      *$X&+ 4$$$  %o09    75#",
"#3,       %5X+ ;2=$  :ow*   @.8#",
"#X@ ;%*   4w0, ;:::  0%&:   w5##",
"#.9 9@    4<<, ,<<<* 4<<<+  &=##",
"#.9       6ww; ;666t 777<+  0=##",
"#X@       02X+ ,X>&O 6..%*  ;>##",
"#3,       %=o+ -3#.O 4X%O   *&=#",
"#1:       $qo+ -3#.O ,%.t    ,3#",
"##.@     *&#o+ +o#%O+%1=%6@ ;.q#",
"##1.O    @o#o+*-o#>o2q##82XX>8##",
"###2:-OOO42#3r.%=###############",
"####=>>>>>8#####################",
"################################",
"################################",
"################################",
"################################",
"################################",
"################################"
};
