/* XPM */
static char *_cd1af721a63478aa5ff2d497222e6a5[] = {
/* columns rows colors chars-per-pixel */
"32 32 35 1 ",
"  c #BB7F43",
". c #BD8247",
"X c #BD8348",
"o c #BF864D",
"O c #C48647",
"+ c #C68A4D",
"@ c #C18A53",
"# c #C68C51",
"$ c #C38D57",
"% c #C78E54",
"& c #C38D58",
"* c #C48F5A",
"= c #C5915D",
"- c #C99259",
"; c #CA955F",
": c #C79563",
"> c #C79564",
", c #CB9560",
"< c #CC9762",
"1 c #C89766",
"2 c #CC9A66",
"3 c #C99968",
"4 c #CC9A68",
"5 c #CE9C6A",
"6 c #CB9C6D",
"7 c #CE9E6E",
"8 c #CD9E71",
"9 c #CEA073",
"0 c #CFA377",
"q c #D0A172",
"w c #D0A374",
"e c #D0A57A",
"r c #D1A87E",
"t c #D4A980",
"y c #D6AE87",
/* pixels */
"                     =,OOOOOOOOO",
"                    3,OOO7OOOOOO",
"                   9OOOOO1=3OOOO",
"                 >4OOOOO+    OOO",
"               .9+OOOOOO7   0OOO",
"             $9;OOOOOOOO8   7OOO",
"           >9#OOOOOOOOOOO,0 OOOO",
"         67OOOOOOOOOOOOOOOO2OOOO",
"      =9,OOOOOOOOOOOOOOOOOOOOOOO",
"    37OOOOOOOOOOOOOOOOOOOOOOOOOO",
"  @9OOOOOOOOOOOOOOOOOOOOOOOOOOOO",
" 8;OOOOOOOOOOOOOOOOOOOOOOOOOOOOO",
"7OOOOOOOOOOOOOOOOOOOOOOOOOOOOOOr",
"OOOOOOOOOOOOOOOOOOOOOOOOOOOOO%9 ",
"OOOOOOOOOOOOOOOOOOOOOOOOOOOO9=  ",
"OOOOOOOOOOOOOOOOOOOOOOOOOO26    ",
"OOOOOOOOOOOOOOOOOOOOOOOO;9X     ",
"OOOOOOOOOOOOOOOOOOOOOO58X       ",
"OOOOOOOOOOOOOOOOOOO+93          ",
"OOOOOOOOOOOOOOOOO49$            ",
"OOOOOOOOOOOOOO-91               ",
"OOOOOOOOOOOOO8o                 ",
"OOOOOOOOOOO%:                   ",
"+42OOOOOOO,o                    ",
"o 8OOOOOO3                      ",
"  &OOOOO3                       ",
"   +OOOe                        ",
" 0wOOOy                         ",
"5OOOOt                          ",
"OOOOq                           ",
"OOO<*                           ",
"OOO7                            "
};
