/* XPM */
static char *bb26e92cc86649479892a692899f7eab[] = {
/* columns rows colors chars-per-pixel */
"32 32 46 1 ",
"  c #EE8E00",
". c #FF9900",
"X c #FD9A04",
"o c #E89311",
"O c #F79E13",
"+ c #F69F17",
"@ c #F89E11",
"# c #F4A01A",
"$ c #F2A11F",
"% c #E19A26",
"& c #DFA238",
"* c #E4A02E",
"= c #EDA329",
"- c #F1A223",
"; c #E6A637",
": c #EAA531",
"> c #E4A539",
", c #E7A83A",
"< c #D1A956",
"1 c #DEAE51",
"2 c #D0AA5A",
"3 c #D9B15C",
"4 c #C9B16F",
"5 c #D7B362",
"6 c #D2B66E",
"7 c #BBBE9A",
"8 c #C3B680",
"9 c #C7B982",
"0 c #CABB82",
"q c #C0B989",
"w c #BCC4A4",
"e c #B4C4AD",
"r c #B9C6AA",
"t c #B9C7AD",
"y c #AFC9BC",
"u c #B1C7B5",
"i c #B4CAB9",
"p c #B3CBBC",
"a c #C3C094",
"s c #ACCBC5",
"d c #AACECD",
"f c #ABD0CF",
"g c #A8D2D6",
"h c #A6D2DA",
"j c #A3D5E2",
"k c #A1D6E7",
/* pixels */
"kkkkkkkkkkkkkkkkkkkkkkkkkkkkkkkk",
"kkkkkkkkkkkkkkkkkkkkkkkkkkkkkkkk",
"kkkkkkkkkkkkkkkkkkkkkkkkkkkkkkkk",
"kkkkkkkkkkkkkkkkkkkkkkkkkkkkkkkk",
"kkkkkkkkkkkkkkkkkkkkkkkkkkkkkkkk",
"kkkkkkkkkkkkkkkkkkkkkkkkkkkkkkkk",
"kkkkkkkkkkkkkkkkkkkkkkkkkkkkkkkk",
"kkkkkkkkkkkkkkkkkkkkkkkkkkkkkkkk",
"kkkkkkkkkkkkkkkkkkkkkkkkkkkkkkkk",
"kkkkkkkkkkkkkkkkkkkkkkkkkkkkkkkk",
"kkkkkkkkkkkkkkkkkkktkkkkkkkkkkkk",
"kkkkkkkkkkkkkkkkkk5+jkkkkkkkkkkk",
"kkkkkkkkkkkkkkkkka..fkkkkkkkkkkk",
"kkkkkkkkkkkkkkkkg$..pkkkkkkkkkkk",
"kkkkkkkkkt,6ikkk1...rkkkkkkkkkkk",
"kkkkkkkkkh...@3a....akkkkkkkkkkk",
"kkkkkkkkkk1.........0kkkkkkkkkkk",
"kkkkkkkkkkw.........><8ukkkkkkkk",
"kkkkkkkkkkk-........;   kkkkkkkk",
"kkkkkkkkkkk6........:  4kkkkkkkk",
"kkkkkkkkkd7&........=  skkkkkkkk",
"kkkkkkkkk   :.......$ 2kkkkkkkkk",
"kkkkkkkkk<  *.......O ukkkkkkkkk",
"kkkkkkkkkkqo #......X%kkkkkkkkkk",
"kkkkkkkkkkkye9ttttttrekkkkkkkkkk",
"kkkkkkkkkkkkkkkkkkkkkkkkkkkkkkkk",
"kkkkkkkkkkkkkkkkkkkkkkkkkkkkkkkk",
"kkkkkkkkkkkkkkkkkkkkkkkkkkkkkkkk",
"kkkkkkkkkkkkkkkkkkkkkkkkkkkkkkkk",
"kkkkkkkkkkkkkkkkkkkkkkkkkkkkkkkk",
"kkkkkkkkkkkkkkkkkkkkkkkkkkkkkkkk",
"kkkkkkkkkkkkkkkkkkkkkkkkkkkkkkkk"
};
